<?xml version="1.0" encoding="UTF-8"?>
<svg width="64px" height="63px" viewBox="0 0 64 63" version="1.1" xmlns="http://www.w3.org/2000/svg" xmlns:xlink="http://www.w3.org/1999/xlink">
    <title>iconproduct/securitygroup copy</title>
    <g id="Page-Scaleway-UI" stroke="none" stroke-width="1" fill="none" fill-rule="evenodd">
        <g id="Scaleway-UI-dark" transform="translate(-225.000000, -549.000000)">
            <g id="Cards" transform="translate(201.000000, 525.000000)">
                <g id="Tutorial-icon" transform="translate(24.000000, 24.000000)">
                    <path d="M37.1834004,1.69762672 L60.3642714,18.6738939 C63.4550543,20.9373962 64.748363,24.9495501 63.567789,28.6119738 L54.7134842,56.0801511 C53.5329102,59.7425747 50.1469839,62.2222222 46.3265662,62.2222222 L17.6734338,62.2222222 C13.8530161,62.2222222 10.4670898,59.7425747 9.28651583,56.0801511 L0.432210958,28.6119738 C-0.748363024,24.9495501 0.544945742,20.9373962 3.63572855,18.6738939 L26.8165996,1.69762672 C29.9073825,-0.565875572 34.0926175,-0.565875572 37.1834004,1.69762672 Z" id="Polygon" fill="#EEEEFF"></path>
                    <g id="Icon" transform="translate(13.000000, 17.000000)" fill-rule="nonzero">
                        <path d="M36.6545257,1.94908473 C37.2522989,1.73173391 37.8814759,2.11936903 37.9822707,2.7199526 L37.9962392,2.88873328 L38,27.0577608 C38,27.3977008 37.8279079,27.7101332 37.5501201,27.8930448 L37.4027308,27.9732349 L19.3521211,35.9153185 C19.1463583,36.005852 18.9177186,36.0237861 18.702912,35.9691544 L18.5449743,35.9145751 L0.599344737,27.9791954 C0.289056393,27.8419889 0.0731643124,27.5589784 0.0177744899,27.2316584 L0.00376081322,27.0647758 L1.2106284e-08,2.89574831 C1.2106284e-08,2.26095983 0.576985404,1.80222246 1.17510835,1.91064276 L1.33833657,1.95456754 L7.81475282,4.28310087 C8.33446667,4.46995899 8.60429954,5.04274875 8.41744141,5.5624626 C8.2513453,6.02443047 7.78031555,6.28896152 7.3126812,6.21080645 L7.13807968,6.1651512 L1.998,4.316 L2.002,26.412 L18.95,33.906 L36,26.404 L35.996,4.314 L30.9154223,6.16393019 C30.4540539,6.33168413 29.9494534,6.1387487 29.7104696,5.72926509 L29.6339046,5.56583957 C29.4661507,5.10447112 29.6590861,4.59987066 30.0685697,4.36088682 L30.2319952,4.28432187 L36.6545257,1.94908473 Z" id="Stroke-11" fill="#4F0599"></path>
                        <path d="M31.1922278,14.6273283 C31.3751797,15.0828838 31.1990731,15.5936011 30.7977346,15.8460243 L30.6369362,15.9279632 L19.4186679,20.4332402 C18.906168,20.6390611 18.3238539,20.3904486 18.118033,19.8779487 C17.935081,19.4223932 18.1111876,18.9116759 18.5125262,18.6592527 L18.6733245,18.5773137 L29.8915928,14.0720368 C30.4040927,13.8662158 30.9864068,14.1148283 31.1922278,14.6273283 Z M31.1922278,8.30928999 C31.3751797,8.7648455 31.1990731,9.27556282 30.7977346,9.52798602 L30.6369362,9.60992496 L19.4186679,14.1152019 C18.906168,14.3210228 18.3238539,14.0724104 18.118033,13.5599104 C17.935081,13.1043549 18.1111876,12.5936376 18.5125262,12.3412144 L18.6733245,12.2592754 L29.8915928,7.75399847 C30.4040927,7.54817756 30.9864068,7.79679004 31.1922278,8.30928999 Z" id="Combined-Shape" fill="#4F0599"></path>
                        <path d="M30.1598705,0.088306711 C30.8216114,-0.20991904 31.5706404,0.27402297 31.570742,0.999860089 L31.570742,0.999860089 L31.5737088,22.2046149 C31.5737088,22.5940618 31.3477152,22.948114 30.9944091,23.1119545 L30.9944091,23.1119545 L19.6327244,28.3812485 C19.4587469,28.5070371 19.2453617,28.5773945 19.0238256,28.5723603 C18.8027434,28.5776037 18.5893782,28.5075179 18.4153211,28.3820112 L7.05873464,23.1156187 C6.70549196,22.9518324 6.47943709,22.5979012 6.47938263,22.2085346 L6.47938263,22.2085346 L6.47641626,1.00013987 C6.47641626,0.274297672 7.22521794,-0.20985384 7.88704332,0.0881966174 L7.88704332,0.0881966174 L19.0274163,5.10485509 Z M29.57,2.546 L20.0454163,6.83685509 L20.0454163,25.9848551 L29.572,21.566 L29.57,2.546 Z M8.476,2.546 L8.478,21.568 L18.0004163,25.9838551 L18.0004163,6.83685509 L8.476,2.546 Z" id="Combined-Shape" fill="#AE5CFF"></path>
                    </g>
                </g>
            </g>
        </g>
    </g>
</svg>