<svg width="470" height="373" xmlns="http://www.w3.org/2000/svg">
    <g fill="none" fill-rule="evenodd" opacity=".8">
        <g fill-rule="nonzero">
            <path d="M414.249 263.274H88.859c-5.27 0-9.62-4.307-9.62-9.617V62.222c0-5.268 4.35-9.617 9.62-9.617h325.39c5.311 0 9.62 4.349 9.62 9.617v191.393c0 5.31-4.309 9.66-9.62 9.66z" fill="#3B007F"/>
            <path d="M414.249 52.605c5.311 0 9.62 4.349 9.62 9.617v191.393c0 5.269-4.309 9.618-9.62 9.618H88.859c-5.312 0-9.62-4.35-9.62-9.618V62.222c0-5.268 4.308-9.617 9.62-9.617h325.39m0-6.69H88.859c-8.993 0-16.312 7.317-16.312 16.307v191.393c0 8.99 7.32 16.308 16.311 16.308h325.39c8.993 0 16.312-7.318 16.312-16.308V62.222c0-8.99-7.32-16.308-16.311-16.308z" fill="#E0D6EB"/>
        </g>
        <path fill="#AE5CFF" fill-rule="nonzero" d="M35.324 98.728h139.734v104.499H35.324z"/>
        <path fill="#FFF" fill-rule="nonzero" d="M35.324 98.728h139.734v8.907H35.324z"/>
        <path d="M49.418 135.233H155.61c1.715 0 3.137-1.421 3.137-3.136 0-1.714-1.422-3.136-3.137-3.136H49.42c-1.716 0-3.138 1.422-3.138 3.136a3.132 3.132 0 0 0 3.137 3.136zm106.149 9.702H49.418c-1.715 0-3.137 1.422-3.137 3.136 0 1.714 1.422 3.136 3.137 3.136H155.61c1.715 0 3.137-1.422 3.137-3.136 0-1.714-1.422-3.136-3.179-3.136zm0 16.015H49.418c-1.715 0-3.137 1.422-3.137 3.137 0 1.714 1.422 3.136 3.137 3.136H155.61c1.715 0 3.137-1.422 3.137-3.136 0-1.715-1.422-3.137-3.179-3.137zm0 15.974H49.418c-1.715 0-3.137 1.422-3.137 3.136 0 1.715 1.422 3.137 3.137 3.137H155.61c1.715 0 3.137-1.422 3.137-3.137 0-1.714-1.422-3.136-3.179-3.136z" fill="#3B007F" fill-rule="nonzero"/>
        <path d="M60.753 128.961h-5.27c-1.715 0-3.137 1.422-3.137 3.136 0 1.715 1.422 3.136 3.137 3.136h5.27c1.714 0 3.136-1.421 3.136-3.136 0-1.714-1.422-3.136-3.136-3.136zm51.234 15.974h-5.27c-1.715 0-3.137 1.422-3.137 3.136 0 1.714 1.422 3.136 3.137 3.136h5.27c1.715 0 3.137-1.422 3.137-3.136 0-1.714-1.422-3.136-3.137-3.136zM86.39 160.95h-5.27c-1.714 0-3.136 1.422-3.136 3.137 0 1.714 1.422 3.136 3.137 3.136h5.27c1.714 0 3.136-1.422 3.136-3.136a3.132 3.132 0 0 0-3.136-3.137zm53.075 15.974h-5.27c-1.714 0-3.136 1.422-3.136 3.136 0 1.715 1.422 3.137 3.136 3.137h5.27c1.715 0 3.137-1.422 3.137-3.137 0-1.714-1.422-3.136-3.137-3.136z" stroke="#000" stroke-width=".5" fill="#FFF" fill-rule="nonzero"/>
        <path fill="#907DFF" fill-rule="nonzero" d="M198.604 4.516h92.64v7.652h-92.64z"/>
        <path fill="#B2AEFF" fill-rule="nonzero" d="M198.604 12.168h92.64v126.494h-92.64z"/>
        <path fill="#3B007F" fill-rule="nonzero" d="M212.866 61.093h11.627v62.264h-11.627z"/>
        <path fill="#907DFF" fill-rule="nonzero" d="M230.641 24.044h11.627v99.313h-11.627z"/>
        <path fill="#FFF" fill-rule="nonzero" d="M248.458 36.631h11.627v86.685h-11.627z"/>
        <path fill="#AE5CFF" fill-rule="nonzero" d="M266.234 90.239h11.627v33.118h-11.627z"/>
        <path fill="#FFF" fill-rule="nonzero" d="M103.58 71.673h73.568v11.374H103.58z"/>
        <path stroke="#E0D6EB" stroke-width="2.091" stroke-linecap="round" d="m118.051 19.194 19.532 56.201"/>
        <path fill="#AE5CFF" fill-rule="nonzero" d="M102.493 12.168h34.588V26.26h-34.588zm288.962 98.603h73.359v7.401h-73.359z"/>
        <path fill="#B2AEFF" fill-rule="nonzero" d="M391.455 118.214h73.359v103.202h-73.359z"/>
        <path fill="#FFF" fill-rule="nonzero" d="M399.443 127.665h58.177v33.913h-58.177z"/>
        <path fill="#907DFF" fill-rule="nonzero" d="M399.443 168.394h38.353v32.031h-38.353z"/>
        <path fill="#AE5CFF" fill-rule="nonzero" d="M442.982 168.394h14.638v32.031h-14.638z"/>
        <path fill="#3B007F" fill-rule="nonzero" d="M399.443 210.502h58.177v5.185h-58.177z"/>
        <path fill="#B2AEFF" fill-rule="nonzero" d="M162.803 188.089h109.244v5.771H162.803z"/>
        <path fill="#FFF" fill-rule="nonzero" d="M162.803 193.86h109.244v55.448H162.803z"/>
        <path stroke="#000" stroke-width=".5" fill="#FFF" fill-rule="nonzero" d="M368.87 86.392h29.277v12.712H368.87z"/>
        <path fill="#B2AEFF" fill-rule="nonzero" d="M97.307 226.685h43.288v17.521H97.307z"/>
        <path stroke="#E0D6EB" stroke-width="2.091" stroke-linecap="round" d="m25.495 267.54 88.499-32.993"/>
        <path d="M21.856 242.325c-2.3.334-4.6.961-6.775 1.965a25.181 25.181 0 0 0-8.03 5.687c-6.441 6.732-8.449 16.1-6.107 24.462l24.51-6.9-3.598-25.214z" fill="#3B007F" fill-rule="nonzero"/>
        <path d="M47.829 279.75c5.395-9.869 3.764-22.497-4.768-30.651a25.437 25.437 0 0 0-12.129-6.44c-2.97-.669-6.064-.753-9.076-.334l3.639 25.215 22.334 12.21z" fill="#AE5CFF" fill-rule="nonzero"/>
        <path d="M.986 274.44a26.088 26.088 0 0 0 1.464 3.93 25.178 25.178 0 0 0 5.479 7.569c2.091 1.965 4.391 3.554 6.859 4.683l10.707-23.124-24.509 6.941z" fill="#B2AEFF" fill-rule="nonzero"/>
        <path d="m47.829 279.75-22.334-12.252-10.707 23.124c9.62 4.475 21.414 2.593 29.151-5.52.293-.292.544-.585.837-.92 1.17-1.38 2.216-2.843 3.053-4.432z" fill="#E0D6EB" fill-rule="nonzero"/>
        <path stroke="#E0D6EB" stroke-width="2.091" stroke-linecap="round" d="m382.546 90.114 25.22-30.902"/>
        <path d="M410.066 5.77a39.604 39.604 0 0 0-16.018 18.734l36.512 14.929L410.066 5.77z" fill="#E0D6EB" fill-rule="nonzero"/>
        <path d="M469.958 37.55C468.954 16.644 451.723 0 430.56 0c-7.528 0-14.555 2.09-20.494 5.729l20.494 33.704 39.398-1.882z" fill="#3B007F" fill-rule="nonzero"/>
        <path d="M394.048 24.504a39.409 39.409 0 0 0-2.928 14.929c0 16.768 10.456 31.069 25.22 36.798l14.262-36.798-36.554-14.929z" fill="#AE5CFF" fill-rule="nonzero"/>
        <path d="m430.56 39.474-14.262 36.799c4.433 1.714 9.201 2.634 14.262 2.634 21.79 0 39.44-17.646 39.44-39.433 0-.627 0-1.254-.042-1.881l-39.398 1.881z" fill="#B2AEFF" fill-rule="nonzero"/>
        <path d="M256.07 204.355h5.396m-23.38 0h14.011m-28.106 0h9.076m-19.49 0h5.73m-21.581 0h10.832m-22.292 0h7.738m-22.209 0h9.83m74.445 8.112h5.396m-23.38 0h13.467m-25.345 0h7.696m-28.357 0h14.22m-25.763 0h6.86m-29.069 0h17.273m58.847 8.113h13.551m-22.083 0h4.893m-18.528 0h10.247m-17.608 0h4.642m-22.961 0H215m-31.536 0h11.92m-23.589 0h6.901m72.146 8.112h10.624m-32.246 0h17.398m-28.231 0h7.361m-17.19 0h7.027m-24.76 0h14.011m-33.041 0h14.471m72.481 8.112h2.72m-15.309 0h9.452m-19.615 0h6.441m-20.786 0h10.832m-24.969 0h9.912m-22.627 0h8.992m-23.923 0h10.958m-19.03 0h5.48" stroke="#3B007F" stroke-linecap="round" stroke-width="2.091"/>
        <g fill-rule="nonzero">
            <path fill="#907DFF" d="m345.03 344.272 2.76 17.647 4.685 5.101 4.224-3.261-1.548-17.145zm-38.896 17.856 1.673-1.046-.837-26.595h8.156l.836 26.595-3.304 5.938-6.524-1.714z"/>
            <path d="m326.67 125.072.334-9.827-4.057 1.088-5.437-16.35s3.639-12.044 9.201-15.263c5.52-3.179 19.657.292 19.657.292l-2.216 11.5-5.772 16.266-.167 11.75-11.544.544zm-83.481-18.942s-5.437-8.907-7.821-13.298c-2.384-4.39-8.449-16.141-9.453-15.389-1.003.753 5.94 15.849 5.94 15.849s-4.058 5.854-5.103 9.283c-1.004 3.429 4.308 7.61 11.167 8.489 6.817.794 5.27-4.935 5.27-4.935zm103.138 87.73-5.02 4.432-.627 2.216s3.723 6.19 6.776 7.653c3.053 1.463 4.935.502 7.654-1.464 2.718-1.965.752-3.345.125-4.307-.627-1.003-3.471-3.972-3.471-3.972-3.137-.92-4.685-2.844-5.437-4.558z" fill="#FFF"/>
            <path d="M374.641 172.868c-1.965-5.31-15.056-36.924-18.026-39.265-2.97-2.342-5.939 20.239-5.939 20.239l13.217 24.462-17.608 15.597c.753 1.715 2.3 3.638 5.479 4.558 0 0 16.687-11.624 22.25-14.802 5.604-3.22 2.635-5.478.627-10.79z" fill="#AE5CFF"/>
            <path d="M318.64 131.428s5.562-9.91 16.77-9.827c11.21.084 10.582 9.074 10.582 9.074l-27.353.753z" fill="#907DFF"/>
            <path d="m342.73 190.933.25-2.133c-14.094 3.554-34.88.753-43.747-.711-.042.753-.126 1.505-.168 2.258 8.574 1.213 28.984 3.513 43.665.586z" fill="#B2AEFF"/>
            <path d="M342.939 188.8c3.89-32.031 20.619-44.952 13.676-55.197-7.779-11.5-33.71-4.433-48.181-2.593-14.471 1.84-39.23 2.969-64.827-26.679 0 0-4.852 1.13-6.316 8.907 0 0 9.996 27.055 67.463 34.457 0 0-3.305 12.252-5.563 40.436 8.867 1.422 29.653 4.181 43.748.669z" fill="#AE5CFF"/>
            <path d="M342.186 201.01c.042-2.718.125-5.31.335-7.82-14.722 2.844-35.174.544-43.665-.668-1.17 16.391-1.924 37.676-1.547 64.438 1.13 77.82 4.433 98.185 4.433 98.185l16.688 3.345s-1.13-62.599 4.433-116.333c0 0 12.59 78.907 22.627 114.117 0 0 9.996 3.345 13.342-1.464 0-.042-17.022-112.653-16.646-153.8z" fill="#B2AEFF"/>
            <path d="M342.52 193.19a41.17 41.17 0 0 1 .21-2.257c-14.68 2.885-35.09.627-43.706-.586-.042.711-.126 1.464-.168 2.175 8.49 1.212 28.9 3.512 43.665.669z" fill="#3B007F"/>
            <path d="M357.326 92.08c-.376-1.172-1.087-2.175-1.84-3.095-.67-.878-1.422-1.715-2.008-2.676-.669-1.13-.794-2.259-.627-3.555.167-1.463.502-2.885.042-4.349-.335-1.17-1.046-2.216-1.966-3.01a6.217 6.217 0 0 0-3.639-1.464c-1.422-.084-2.844.25-4.266.46-1.463.209-2.844.209-4.224-.46-1.338-.627-2.635-1.422-4.099-1.84-2.593-.669-5.688-.544-7.779 1.296-1.004.878-1.338 2.217-2.258 3.178-.795.837-2.008 1.255-2.76 2.133-.92 1.045-.92 2.425-.377 3.68.627 1.38 1.882 2.216 2.677 3.512.71 1.171.92 2.593 1.087 3.973.167 1.505.376 2.969-.585 4.307a10.005 10.005 0 0 1-3.054 2.718c-.585.335-1.212.627-1.84.878-.71.251-1.464.418-2.175.627-1.38.46-2.216 1.339-2.927 2.593-.711 1.296-1.422 2.593-1.882 3.973-.92 2.634-.586 5.52.543 8.028 1.13 2.426 3.179 4.39 5.605 5.478.585.251 1.213.376 1.882.544.669.167 1.338.292 2.05.376 1.17.126 2.467.084 3.261-.92.67-.878.711-2.049.753-3.094 0-.084-.042-.168-.042-.21.084-.041.042-.125-.041-.125h-.084c-.126-.083-.335-.042-.46.084-1.339.209-2.802-.21-3.764-1.171-1.13-1.17-1.422-2.844-.962-4.349.502-1.63 1.296-3.22 1.965-4.767.67-1.589 1.297-3.136 2.008-4.683.376-.837.795-1.673 1.213-2.467a4.136 4.136 0 0 1 1.255-.168c1.003.042 1.965.418 2.635 1.171.585.711.878 1.673.71 2.593-.209.92-.92 1.63-1.714 2.09-.544.293-1.13.46-1.715.586-.586.125-1.213.084-1.798.25H326c-.042.043-.084.126 0 .126-.92 2.426-.25 5.227 1.631 6.984.92.836 2.091 1.463 3.304 1.672.628.084 1.255.126 1.882-.042.628-.167 1.088-.585 1.59-1.003.543-.502 1.129-.753 1.882-.627.71.083 1.422.418 2.05.752 1.128.544 2.174 1.046 3.429 1.213 2.342.25 4.893-.627 6.482-2.384.92-1.003 1.464-2.216 2.008-3.47.586-1.38 1.171-2.718 2.091-3.931 1.715-2.384 4.015-4.39 4.935-7.276.419-1.38.46-2.844.042-4.14z" fill="#907DFF"/>
            <path d="M281.625 371.495s0-1.882 4.559-1.631c4.558.25 16.436-5.729 19.95-7.694 0 0 3.638 3.136 6.064 2.09 2.468-1.045 3.723-3.136 3.723-3.136s1.965 5.854 0 7.234L314.289 373h-2.802l-.585-3.722s-9.913 1.757-14.011 2.802c-4.1 1.045-12.213.92-15.266-.585zm75.115 1.255s5.187-9.66-.752-10.831c-3.179-.586-4.559.92-5.688 1.881-1.13.92-2.51-1.881-2.51-1.881s-4.433 4.892-6.942 5.478c-2.51.585-6.065.46-6.316 1.38-.25.92 4.057 3.972 7.821 3.972 3.764 0 6.943-2.927 6.943-2.927l1.255 2.927h6.19z" fill="#3B007F"/>
        </g>
    </g>
</svg>
