<svg xmlns="http://www.w3.org/2000/svg" xmlns:xlink="http://www.w3.org/1999/xlink" width="470" height="373">
    <style>
        .B{fill:#3b007f}.C{fill:#ae5cff}.D{fill:#b2aeff}.E{fill:#fff}.F{fill:#907dff}.G{fill-rule:nonzero}.H{stroke-width:2.09}.I{stroke-linecap:round}.J{fill:#e0d6eb}.K{stroke:#e0d6eb}
    </style>
    <g fill="none" fill-rule="evenodd" opacity=".8">
        <g class="G">
            <path d="M414.25 263.27H88.86c-5.27 0-9.62-4.31-9.62-9.62V62.22a9.7 9.7 0 0 1 9.62-9.62h325.39c5.31 0 9.62 4.35 9.62 9.62v191.39c0 5.31-4.31 9.66-9.62 9.66z" class="B"/>
            <path d="M414.25 52.6c5.31 0 9.62 4.35 9.62 9.62v191.39c0 5.27-4.31 9.62-9.62 9.62H88.86c-5.31 0-9.62-4.35-9.62-9.62V62.22c0-5.27 4.31-9.62 9.62-9.62h325.39m0-6.69H88.86c-8.99 0-16.31 7.32-16.31 16.31v191.39c0 8.99 7.32 16.31 16.31 16.31h325.39c8.99 0 16.31-7.32 16.31-16.31V62.22c0-8.99-7.32-16.31-16.31-16.31z" class="J"/>
            <path d="M35.32 98.73h139.73v104.5H35.32z" class="C"/>
            <path d="M35.32 98.73h139.73v8.91H35.32z" class="E"/>
            <g class="B">
                <path d="M49.42 135.23h106.19c1.71 0 3.14-1.42 3.14-3.14s-1.42-3.14-3.14-3.14H49.42c-1.71 0-3.14 1.42-3.14 3.14s1.38 3.14 3.14 3.14z"/>
                <use xlink:href="#B"/>
                <use xlink:href="#B" y="16.02"/>
                <use xlink:href="#B" y="31.99"/>
            </g>
            <g stroke="#000" stroke-width=".5" class="E">
                <use xlink:href="#C"/>
                <use xlink:href="#C" x="51.24" y="15.97"/>
                <path d="M86.39 160.95h-5.27c-1.71 0-3.14 1.42-3.14 3.14 0 1.71 1.42 3.14 3.14 3.14h5.27c1.71 0 3.14-1.42 3.14-3.14 0-1.71-1.38-3.14-3.14-3.14z"/>
                <use xlink:href="#C" x="78.72" y="47.96"/>
            </g>
            <path d="M198.6 4.52h92.64v7.65H198.6z" class="F"/>
            <path d="M198.6 12.17h92.64v126.49H198.6z" class="D"/>
            <path d="M212.87 61.09h11.63v62.26h-11.63z" class="B"/>
            <path d="M230.64 24.04h11.63v99.31h-11.63z" class="F"/>
            <path d="M248.46 36.63h11.63v86.68h-11.63z" class="E"/>
            <path d="M266.23 90.24h11.63v33.12h-11.63z" class="C"/>
            <path d="M103.58 71.67h73.57v11.37h-73.57z" class="E"/>
        </g>
        <path d="m118.05 19.19 19.53 56.2" class="H I K"/>
        <g class="G">
            <path d="M102.49 12.17h34.59v14.09h-34.59zm288.96 98.6h73.36v7.4h-73.36z" class="C"/>
            <path d="M391.45 118.21h73.36v103.2h-73.36z" class="D"/>
            <path d="M399.44 127.66h58.18v33.91h-58.18z" class="E"/>
            <path d="M399.44 168.39h38.35v32.03h-38.35z" class="F"/>
            <path d="M442.98 168.39h14.64v32.03h-14.64z" class="C"/>
            <path d="M399.44 210.5h58.18v5.19h-58.18z" class="B"/>
            <path d="M162.8 188.09h109.24v5.77H162.8z" class="D"/>
            <g class="E">
                <path d="M162.8 193.86h109.24v55.45H162.8z"/>
                <path stroke="#000" stroke-width=".5" d="M368.87 86.39h29.28V99.1h-29.28z"/>
            </g>
            <path d="M97.31 226.69h43.29v17.52H97.31z" class="D"/>
        </g>
        <path d="m25.49 267.54 88.5-32.99" class="H I K"/>
        <g class="G">
            <path d="M21.86 242.32a24.6 24.6 0 0 0-6.78 1.97 25.2 25.2 0 0 0-8.03 5.69c-6.44 6.73-8.45 16.1-6.11 24.46l24.51-6.9-3.6-25.22z" class="B"/>
            <path d="M47.83 279.75a25.5 25.5 0 0 0-4.77-30.65 25.378 25.378 0 0 0-12.13-6.44c-2.97-.67-6.06-.75-9.08-.33l3.64 25.22 22.33 12.21z" class="C"/>
            <path d="M.99 274.44a26.1 26.1 0 0 0 1.46 3.93 25.2 25.2 0 0 0 5.48 7.57c2.09 1.97 4.39 3.55 6.86 4.68L25.5 267.5.99 274.44z" class="D"/>
            <path d="M47.83 279.75 25.49 267.5l-10.71 23.12c9.62 4.47 21.41 2.59 29.15-5.52.29-.29.54-.59.84-.92 1.17-1.38 2.22-2.84 3.05-4.43z" class="J"/>
        </g>
        <path d="m382.55 90.11 25.22-30.9" class="H I K"/>
        <g class="G">
            <path d="M410.07 5.77a39.6 39.6 0 0 0-16.02 18.73l36.51 14.93-20.49-33.66z" class="J"/>
            <path d="M469.96 37.55C468.95 16.64 451.72 0 430.56 0a39.1 39.1 0 0 0-20.49 5.73l20.49 33.7 39.4-1.88z" class="B"/>
            <path d="M394.05 24.5a39.4 39.4 0 0 0-2.93 14.93c0 16.77 10.46 31.07 25.22 36.8l14.26-36.8-36.55-14.93z" class="C"/>
            <path d="m430.56 39.47-14.26 36.8a39.3 39.3 0 0 0 14.26 2.63c21.79 0 39.44-17.65 39.44-39.43 0-.63 0-1.25-.04-1.88l-39.4 1.88z" class="D"/>
        </g>
        <path d="M256.08 204.36h5.4m-23.39 0h14.01m-28.1 0h9.08m-19.5 0h5.73m-21.58 0h10.83m-22.29 0h7.74m-22.21 0h9.83m74.45 8.11h5.4m-23.39 0h13.47m-25.35 0h7.7m-28.36 0h14.22m-25.76 0h6.86m-29.07 0h17.27m58.85 8.11h13.55m-22.08 0h4.89m-18.53 0H236m-17.61 0h4.64m-22.96 0H215m-31.53 0h11.92m-23.59 0h6.9m72.15 8.12h10.62m-32.25 0h17.4m-28.23 0h7.36m-17.19 0h7.03m-24.76 0h14.01m-33.04 0h14.47m72.48 8.11h2.72m-15.31 0h9.45m-19.61 0h6.44m-20.79 0h10.83m-24.96 0h9.91m-22.63 0h8.99m-23.92 0h10.96m-19.03 0h5.48" stroke="#3b007f" class="H I"/>
        <g class="G">
            <path d="m345.03 344.27 2.76 17.65 4.68 5.1 4.22-3.26-1.55-17.14zm-38.89 17.86 1.67-1.05-.84-26.6h8.16l.84 26.6-3.3 5.94-6.52-1.71z" class="F"/>
            <path d="m326.67 125.07.33-9.83-4.06 1.09-5.44-16.35s3.64-12.04 9.2-15.26c5.52-3.18 19.66.29 19.66.29l-2.22 11.5-5.77 16.27-.17 11.75-11.54.54zm-83.48-18.94s-5.44-8.91-7.82-13.3-8.45-16.14-9.45-15.39 5.94 15.85 5.94 15.85-4.06 5.85-5.1 9.28c-1 3.43 4.31 7.61 11.17 8.49 6.82.79 5.27-4.93 5.27-4.93zm103.14 87.73-5.02 4.43-.63 2.22s3.72 6.19 6.78 7.65 4.94.5 7.65-1.46.75-3.35.13-4.31c-.63-1-3.47-3.97-3.47-3.97a8.1 8.1 0 0 1-5.44-4.56z" class="E"/>
            <path d="M374.65 172.87c-1.97-5.31-15.06-36.92-18.03-39.27s-5.94 20.24-5.94 20.24l13.22 24.46-17.61 15.6c.75 1.71 2.3 3.64 5.48 4.56 0 0 16.69-11.62 22.25-14.8 5.6-3.22 2.63-5.48.63-10.79z" class="C"/>
            <path d="M318.64 131.43s5.56-9.91 16.77-9.83 10.58 9.07 10.58 9.07l-27.35.75z" class="F"/>
            <path d="m342.73 190.93.25-2.13c-14.09 3.55-34.88.75-43.75-.71l-.17 2.26c8.57 1.21 28.98 3.51 43.66.59z" class="D"/>
            <path d="M342.94 188.8c3.89-32.03 20.62-44.95 13.68-55.2-7.78-11.5-33.71-4.43-48.18-2.59s-39.23 2.97-64.83-26.68c0 0-4.85 1.13-6.32 8.91 0 0 10 27.06 67.46 34.46 0 0-3.3 12.25-5.56 40.44 8.87 1.42 29.65 4.18 43.75.67z" class="C"/>
            <path d="m342.19 201.01.33-7.82c-14.72 2.84-35.17.54-43.66-.67-1.17 16.39-1.92 37.68-1.55 64.44 1.13 77.82 4.43 98.18 4.43 98.18l16.69 3.35s-1.13-62.6 4.43-116.33c0 0 12.59 78.91 22.63 114.12 0 0 10 3.35 13.34-1.46 0-.04-17.02-112.65-16.65-153.8z" class="D"/>
            <path d="m342.52 193.19.21-2.26c-14.68 2.89-35.09.63-43.71-.59-.04.71-.13 1.46-.17 2.17 8.49 1.21 28.9 3.51 43.66.67z" class="B"/>
            <path d="M357.33 92.08c-.38-1.17-1.09-2.17-1.84-3.09l-2.01-2.68c-.67-1.13-.79-2.26-.63-3.55.17-1.46.5-2.89.04-4.35-.33-1.17-1.05-2.22-1.97-3.01a6.2 6.2 0 0 0-3.64-1.46c-1.42-.08-2.84.25-4.27.46-1.46.21-2.84.21-4.22-.46-1.34-.63-2.63-1.42-4.1-1.84-2.59-.67-5.69-.54-7.78 1.3-1 .88-1.34 2.22-2.26 3.18-.79.84-2.01 1.25-2.76 2.13-.92 1.05-.92 2.43-.38 3.68.63 1.38 1.88 2.22 2.68 3.51.71 1.17.92 2.59 1.09 3.97.17 1.51.38 2.97-.59 4.31a10 10 0 0 1-3.05 2.72c-.59.33-1.21.63-1.84.88-.71.25-1.46.42-2.17.63a5.1 5.1 0 0 0-2.93 2.59c-.71 1.3-1.42 2.59-1.88 3.97a10.9 10.9 0 0 0 .54 8.03c1.13 2.43 3.18 4.39 5.6 5.48.59.25 1.21.38 1.88.54s1.34.29 2.05.38c1.17.13 2.47.08 3.26-.92.67-.88.71-2.05.75-3.09 0-.08-.04-.17-.04-.21.08-.04.04-.13-.04-.13h-.08c-.13-.08-.33-.04-.46.08-1.34.21-2.8-.21-3.76-1.17-1.13-1.17-1.42-2.84-.96-4.35.5-1.63 1.3-3.22 1.97-4.77l2.01-4.68 1.21-2.47c.42-.13.79-.17 1.25-.17 1 .04 1.97.42 2.63 1.17.59.71.88 1.67.71 2.59-.21.92-.92 1.63-1.71 2.09a6.4 6.4 0 0 1-1.71.59c-.59.13-1.21.08-1.8.25H326c-.04.04-.08.13 0 .13a6.5 6.5 0 0 0 1.63 6.98c.92.84 2.09 1.46 3.3 1.67.63.08 1.25.13 1.88-.04s1.09-.59 1.59-1c.54-.5 1.13-.75 1.88-.63.71.08 1.42.42 2.05.75a11.2 11.2 0 0 0 3.43 1.21c2.34.25 4.89-.63 6.48-2.38.92-1 1.46-2.22 2.01-3.47.59-1.38 1.17-2.72 2.09-3.93 1.71-2.38 4.02-4.39 4.94-7.28a7 7 0 0 0 .04-4.14z" class="F"/>
            <path d="M281.63 371.49s0-1.88 4.56-1.63 16.44-5.73 19.95-7.69c0 0 3.64 3.14 6.06 2.09 2.47-1.05 3.72-3.14 3.72-3.14s1.97 5.85 0 7.23l-1.63 4.64h-2.8l-.59-3.72s-9.91 1.76-14.01 2.8-12.21.92-15.27-.59zm75.11 1.26s5.19-9.66-.75-10.83c-3.18-.59-4.56.92-5.69 1.88-1.13.92-2.51-1.88-2.51-1.88s-4.43 4.89-6.94 5.48-6.06.46-6.32 1.38 4.06 3.97 7.82 3.97 6.94-2.93 6.94-2.93l1.25 2.93h6.19z" class="B"/>
        </g>
    </g>
    <defs>
        <path id="B" d="M155.57 144.93H49.42c-1.71 0-3.14 1.42-3.14 3.14s1.42 3.14 3.14 3.14h106.19c1.71 0 3.14-1.42 3.14-3.14s-1.42-3.14-3.18-3.14z"/>
        <path id="C" d="M60.75 128.96h-5.27c-1.71 0-3.14 1.42-3.14 3.14 0 1.71 1.42 3.14 3.14 3.14h5.27c1.71 0 3.14-1.42 3.14-3.14 0-1.71-1.42-3.14-3.14-3.14z"/>
    </defs>
</svg>
